:SAMPLES-PER-SECOND 30
:FULLY-SPECIFIED
:DEGREES
31
root  72.2905 39.2703 18.0775 -35.5357 -84.2099 36.5866
RightUpLeg  6.30035 -10.0672 -6.61715
RightLeg  11.832 -3.16097 2.19567
RightFoot  -19.938 -0.0235812 1.48307
RightToes  1.74622e-010 0 -3.6325e-017
Spine  3.99385 1.7028 11.0694
Spine1  8.40092 4.11542 -8.12741
HEad  -5.27414 -5.22859 -5.42725
LeftShoulder1  9.11275 -12.6645 -49.2043
LeftArm  -13.0427 23.2362 -30.6988
LeftForeArm  25.4681 -7.98814 -4.21148
LeftHand  -0.244104 0.0205437 5.32207
RightShoulder  7.56969 11.1799 45.0257
RightArm  11.963 -7.85716 33.5248
RightForeArm  0.32991 20.5754 5.38921
RightHand  -0.597568 -0.100545 -13.1342
LeftUpLeg  -25.2692 7.7773 -5.77526
LeftLeg  25.7352 5.21412 3.09692
LeftFoot  -5.62076 0.245599 -4.23326
LeftToes  -2.63786e-011 -1.12672e-010 -2.07835e-011
32
root  71.4839 39.1782 18.1023 -35.0378 -83.75 36.5381
RightUpLeg  7.67946 -10.0454 -7.02878
RightLeg  10.938 -3.48567 2.38189
RightFoot  -20.3207 -0.0300595 1.37101
RightToes  1.74622e-010 0 -3.6325e-017
Spine  4.46426 1.74967 11.1721
Spine1  7.69826 4.34413 -9.13158
HEad  -6.1751 -5.43448 -5.52749
LeftShoulder1  9.1054 -12.7149 -49.0116
LeftArm  -11.5996 25.1816 -28.9052
LeftForeArm  26.0919 -8.717 -4.56917
LeftHand  -0.244104 0.0205437 5.32207
RightShoulder  7.55053 11.2851 44.5737
RightArm  13.4341 -6.47307 33.6553
RightForeArm  -4.44641 24.2653 5.32503
RightHand  -0.693189 0.342506 -14.0966
LeftUpLeg  -26.3483 9.08183 -7.14757
LeftLeg  19.4488 3.61759 1.72296
LeftFoot  -4.40648 0.265064 -3.9442
LeftToes  -2.63786e-011 -1.12672e-010 -2.07835e-011
33
root  70.5931 39.0462 18.1434 -34.266 -83.5703 36.0815
RightUpLeg  9.23437 -9.91663 -7.19328
RightLeg  10.1958 -3.81978 2.418
RightFoot  -20.6962 -0.0509976 1.08873
RightToes  1.74622e-010 0 -3.6325e-017
Spine  4.72907 1.82381 10.9882
Spine1  7.72919 4.51621 -9.53442
HEad  -7.41177 -5.06844 -5.33806
LeftShoulder1  9.00285 -12.6005 -48.8022
LeftArm  -10.332 26.5406 -27.3907
LeftForeArm  25.6571 -9.67428 -4.8767
LeftHand  -0.244104 0.0205437 5.32207
RightShoulder  7.52619 11.3447 44.2364
RightArm  12.3416 -4.21036 33.3007
RightForeArm  -4.23466 27.0258 6.03745
RightHand  -0.725519 0.40538 -14.5898
LeftUpLeg  -27.0176 9.05016 -7.35201
LeftLeg  13.7193 3.69621 0.229281
LeftFoot  -2.17236 0.26176 -3.1271
LeftToes  -2.63786e-011 -1.12672e-010 -2.07835e-011
34
root  69.6077 38.8487 18.2033 -33.6392 -83.4783 35.5228
RightUpLeg  11.1157 -9.86397 -7.42982
RightLeg  9.67818 -3.81856 2.44971
RightFoot  -21.3175 -0.0167438 1.45607
RightToes  1.74622e-010 0 -3.6325e-017
Spine  4.96202 1.95277 10.3716
Spine1  8.31021 4.65389 -9.3267
HEad  -8.83133 -4.86938 -5.40764
LeftShoulder1  8.81432 -12.3765 -48.4512
LeftArm  -10.0328 27.1001 -26.4731
LeftForeArm  25.2689 -10.1713 -4.87181
LeftHand  -0.244104 0.0205437 5.32207
RightShoulder  7.38417 11.2463 43.6624
RightArm  11.0892 -1.51713 33.1229
RightForeArm  -2.13002 28.8642 6.37197
RightHand  -0.688404 0.138223 -14.4926
LeftUpLeg  -27.3161 5.56655 -5.35402
LeftLeg  9.81017 8.51918 -1.54184
LeftFoot  -0.346616 0.184981 -1.88552
LeftToes  -2.63786e-011 -1.12672e-010 -2.07835e-011
35
root  68.5 38.6012 18.3065 -33.302 -83.4709 35.09
RightUpLeg  13.1676 -10.1131 -7.98582
RightLeg  9.64629 -3.0799 2.6087
RightFoot  -21.7914 0.068503 2.36581
RightToes  1.74622e-010 0 -3.6325e-017
Spine  5.19301 2.14393 9.77356
Spine1  8.90927 4.89208 -9.20607
HEad  -10.0313 -4.95655 -5.46682
LeftShoulder1  8.69744 -12.287 -48.0762
LeftArm  -10.238 27.3245 -25.6511
LeftForeArm  24.6789 -10.1958 -4.7494
LeftHand  -0.244104 0.0205437 5.32207
RightShoulder  7.1878 11.0229 43.1277
RightArm  9.33534 0.731042 33.1626
RightForeArm  -0.809856 29.9772 6.57807
RightHand  -0.659112 -0.0504102 -14.3604
LeftUpLeg  -27.8839 4.66687 -4.83123
LeftLeg  8.79369 10.8559 -2.0201
LeftFoot  0.0370946 0.132999 -1.32959
LeftToes  -2.63786e-011 -1.12672e-010 -2.07835e-011
36
root  67.2378 38.3596 18.4813 -35.5364 -83.8446 37.2717
RightUpLeg  14.9601 -10.7187 -8.96599
RightLeg  10.4725 -1.24592 2.66537
RightFoot  -21.6645 0.139382 3.16409
RightToes  1.74622e-010 0 -3.6325e-017
Spine  5.28542 2.48739 9.59388
Spine1  9.18813 5.46544 -9.81471
HEad  -10.7428 -4.94429 -4.99168
LeftShoulder1  8.64318 -12.3128 -47.693
LeftArm  -9.7925 27.7553 -24.4906
LeftForeArm  23.4512 -10.4211 -4.80729
LeftHand  -0.244104 0.0205437 5.32207
RightShoulder  7.08108 10.8657 42.9415
RightArm  7.38857 1.73267 33.1173
RightForeArm  -1.08083 30.9103 6.82892
RightHand  -0.705176 0.134054 -14.8467
LeftUpLeg  -28.3513 6.42305 -5.89774
LeftLeg  10.2306 10.4134 -1.16984
LeftFoot  0.315835 0.0918695 -0.920835
LeftToes  -2.63786e-011 -1.12672e-010 -2.07835e-011
37
root  65.8278 38.1608 18.7182 -44.3705 -84.4612 46.0996
RightUpLeg  16.4262 -11.5185 -10.5551
RightLeg  12.0683 1.75988 2.34408
RightFoot  -21.159 0.266541 4.74676
RightToes  1.74622e-010 0 -3.6325e-017
Spine  5.28619 2.99414 9.12168
Spine1  9.1576 6.26937 -10.7735
HEad  -10.9935 -4.60859 -4.14648
LeftShoulder1  8.54237 -12.2325 -47.3717
LeftArm  -8.84216 28.4567 -23.1668
LeftForeArm  22.4335 -11.1481 -4.93903
LeftHand  -0.244104 0.0205437 5.32207
RightShoulder  7.05367 10.8173 42.918
RightArm  6.24236 1.5243 33.053
RightForeArm  -1.98609 31.3555 6.99182
RightHand  -0.871778 0.898719 -16.1352
LeftUpLeg  -28.4238 9.36392 -7.85137
LeftLeg  12.7549 8.75712 0.218471
LeftFoot  2.13673 -0.127965 0.918717
LeftToes  -2.63786e-011 -1.12672e-010 -2.07835e-011
38
root  64.3339 38.0294 18.9796 -57.3892 -84.5285 58.9358
RightUpLeg  17.4133 -11.4339 -12.3425
RightLeg  14.7237 4.29123 1.71911
RightFoot  -19.9652 0.516061 8.70393
RightToes  1.74622e-010 0 -3.6325e-017
Spine  5.44888 3.39344 7.46566
Spine1  8.91077 6.7449 -11.1861
HEad  -10.8656 -4.0396 -3.45368
LeftShoulder1  8.46428 -12.0772 -47.4067
LeftArm  -8.44093 28.9395 -21.9847
LeftForeArm  22.2309 -11.5935 -4.90665
LeftHand  -0.244104 0.0205437 5.32207
RightShoulder  7.00222 10.7346 42.8483
RightArm  6.55362 0.775225 33.2839
RightForeArm  -3.02446 30.2305 6.76215
RightHand  -1.12227 2.0701 -17.555
LeftUpLeg  -28.1217 12.0337 -10.11
LeftLeg  15.8011 6.77972 1.59926
LeftFoot  4.30025 -0.552639 3.85467
LeftToes  -2.63786e-011 -1.12672e-010 -2.07835e-011
39
root  62.8339 38.0263 19.2499 -64.0555 -83.9435 65.1545
RightUpLeg  16.676 -8.67718 -12.9896
RightLeg  20.3176 3.34494 1.04383
RightFoot  -15.9454 0.4237 13.6533
RightToes  1.74622e-010 0 -3.6325e-017
Spine  5.93381 3.4081 5.12773
Spine1  8.40914 6.53669 -10.7976
HEad  -10.3815 -3.39776 -3.16647
LeftShoulder1  8.56145 -12.0896 -47.9192
LeftArm  -8.84053 28.5065 -21.0624
LeftForeArm  22.2478 -10.7116 -4.83505
LeftHand  -0.244104 0.0205437 5.32207
RightShoulder  6.93603 10.603 42.8392
RightArm  8.07665 -0.188164 33.7653
RightForeArm  -4.49707 27.2468 6.08425
RightHand  -1.31321 3.0265 -18.2234
LeftUpLeg  -27.117 12.4825 -11.4058
LeftLeg  18.9811 6.1899 2.75591
LeftFoot  4.02294 -0.791832 5.69661
LeftToes  -2.63786e-011 -1.12672e-010 -2.07835e-011
40
root  61.3917 38.1893 19.5331 -65.2606 -83.4677 65.8008
RightUpLeg  12.9365 -4.50421 -12.457
RightLeg  30.196 0.541729 0.0944618
RightFoot  -7.09631 -0.599593 15.5738
RightToes  1.74622e-010 0 -3.6325e-017
Spine  6.59807 3.20042 3.3006
Spine1  7.88371 6.04496 -10.1759
HEad  -9.69962 -2.81033 -3.28587
LeftShoulder1  8.77095 -12.2984 -48.4508
LeftArm  -9.18196 26.7437 -20.7346
LeftForeArm  21.8996 -8.66492 -4.86788
LeftHand  -0.244104 0.0205437 5.32207
RightShoulder  6.95621 10.5913 43.009
RightArm  10.032 -1.45528 34.0883
RightForeArm  -6.21099 23.3665 5.45929
RightHand  -1.33788 3.2828 -18.0177
LeftUpLeg  -24.9901 10.9361 -11.2839
LeftLeg  21.2304 7.5483 3.55443
LeftFoot  1.06349 -0.621287 5.62538
LeftToes  -2.63786e-011 -1.12672e-010 -2.07835e-011
41
root  60.071 38.4133 19.8038 -69.5298 -83.2811 69.5643
RightUpLeg  6.60815 -0.635752 -11.8253
RightLeg  42.1555 -0.528455 -0.754755
RightFoot  3.79833 -1.6538 12.7609
RightToes  1.74622e-010 0 -3.6325e-017
Spine  7.28364 3.13426 1.84369
Spine1  7.73798 5.72856 -9.65329
HEad  -9.01055 -2.21235 -3.79288
LeftShoulder1  8.88573 -12.4617 -48.5848
LeftArm  -9.14674 23.9503 -21.336
LeftForeArm  21.7118 -6.9019 -4.958
LeftHand  -0.244104 0.0205437 5.32207
RightShoulder  7.06028 10.7427 43.1995
RightArm  10.8331 -2.9283 33.9868
RightForeArm  -5.94173 19.5562 5.9524
RightHand  -1.23262 2.86488 -17.4461
LeftUpLeg  -22.2966 10.6609 -11.2908
LeftLeg  21.9965 8.22619 3.97587
LeftFoot  -2.21808 -0.38083 4.94882
LeftToes  -2.63786e-011 -1.12672e-010 -2.07835e-011
42
root  58.8239 38.6321 20.055 -75.7138 -83.3008 75.2667
RightUpLeg  -0.417595 2.3685 -11.2994
RightLeg  52.6726 -0.337599 -0.860208
RightFoot  10.1217 -1.48445 8.08973
RightToes  1.74622e-010 0 -3.6325e-017
Spine  7.86986 3.09544 0.427906
Spine1  7.93234 5.33664 -8.88387
HEad  -8.33601 -1.41673 -4.47092
LeftShoulder1  8.88045 -12.4695 -48.5317
LeftArm  -9.37066 20.7898 -22.4913
LeftForeArm  22.4473 -6.61229 -5.08862
LeftHand  -0.244104 0.0205437 5.32207
RightShoulder  7.12842 10.8543 43.2821
RightArm  10.5689 -4.3699 33.6082
RightForeArm  -2.80964 16.3851 7.29052
RightHand  -1.12208 2.32408 -16.994
LeftUpLeg  -19.3723 11.6897 -11.2953
LeftLeg  21.7788 8.01341 3.84042
LeftFoot  -4.42374 -0.254055 4.65335
LeftToes  -2.63786e-011 -1.12672e-010 -2.07835e-011
43
root  57.5381 38.981 20.3362 -74.4541 -83.8266 73.4475
RightUpLeg  -6.57749 3.38714 -10.3523
RightLeg  59.3167 -0.629109 -1.6485
RightFoot  10.1526 -0.874317 4.93895
RightToes  1.74622e-010 0 -3.6325e-017
Spine  8.33058 2.53018 -0.0338415
Spine1  8.01651 4.43228 -7.61038
HEad  -7.61035 -0.481549 -4.94511
LeftShoulder1  8.90289 -12.4672 -48.662
LeftArm  -9.56718 17.6064 -23.4544
LeftForeArm  23.5533 -7.78978 -5.29984
LeftHand  -0.244104 0.0205437 5.32207
RightShoulder  7.10646 10.7828 43.3696
RightArm  11.0883 -5.97206 33.1578
RightForeArm  1.12302 14.5191 8.11702
RightHand  -1.06801 2.06715 -16.7288
LeftUpLeg  -15.5231 12.3246 -10.3655
LeftLeg  20.002 7.6505 3.1105
LeftFoot  -5.77426 -0.177695 4.35946
LeftToes  -2.63786e-011 -1.12672e-010 -2.07835e-011
44
root  56.2658 39.3604 20.6341 -64.1737 -84.6927 62.5874
RightUpLeg  -11.8145 2.84142 -9.03511
RightLeg  61.6995 -1.57272 -3.68913
RightFoot  7.03534 -0.720539 4.78543
RightToes  1.74622e-010 0 -3.6325e-017
Spine  8.8704 1.58845 0.374475
Spine1  7.94744 3.19676 -6.28707
HEad  -6.8641 0.298716 -5.04695
LeftShoulder1  8.97578 -12.5445 -48.8256
LeftArm  -9.11336 14.3782 -24.139
LeftForeArm  24.4351 -9.84354 -5.55198
LeftHand  -0.244104 0.0205437 5.32207
RightShoulder  7.03689 10.6257 43.4254
RightArm  11.8953 -8.13288 32.6784
RightForeArm  4.68967 14.1099 8.19351
RightHand  -1.02454 1.92305 -16.3655
LeftUpLeg  -11.2836 11.0566 -8.44173
LeftLeg  17.6283 8.47096 2.12328
LeftFoot  -7.14745 -0.0922407 3.6842
LeftToes  -2.63786e-011 -1.12672e-010 -2.07835e-011
